<svg xmlns="http://www.w3.org/2000/svg" viewBox="0 0 1440 320"><path fill="#f3f4f5" fill-opacity="1" d="M0,64L34.3,74.7C68.6,85,137,107,206,138.7C274.3,171,343,213,411,202.7C480,192,549,128,617,133.3C685.7,139,754,213,823,224C891.4,235,960,181,1029,160C1097.1,139,1166,149,1234,149.3C1302.9,149,1371,139,1406,133.3L1440,128L1440,320L1405.7,320C1371.4,320,1303,320,1234,320C1165.7,320,1097,320,1029,320C960,320,891,320,823,320C754.3,320,686,320,617,320C548.6,320,480,320,411,320C342.9,320,274,320,206,320C137.1,320,69,320,34,320L0,320Z"></path></svg>